<?xml version="1.0" standalone="no"?>
<!DOCTYPE svg PUBLIC "-//W3C//DTD SVG 20010904//EN"
 "http://www.w3.org/TR/2001/REC-SVG-20010904/DTD/svg10.dtd">
<svg version="1.0" xmlns="http://www.w3.org/2000/svg"
 width="3508.000000pt" height="2480.000000pt" viewBox="0 0 3508.000000 2480.000000"
 preserveAspectRatio="xMidYMid meet">

<g transform="translate(0.000000,2480.000000) scale(0.100000,-0.100000)"
fill="#000000" stroke="none">
<path d="M12385 22233 c-253 -54 -475 -233 -591 -476 -74 -157 -77 -179 -84
-692 -6 -434 -8 -464 -29 -533 -52 -176 -165 -341 -303 -443 -99 -74 -157
-103 -308 -159 -177 -65 -398 -155 -585 -240 -275 -124 -309 -134 -490 -134
-149 0 -246 21 -370 79 -113 54 -169 101 -490 416 -249 243 -314 301 -375 336
-251 141 -550 149 -803 23 -42 -21 -103 -59 -135 -84 -31 -24 -485 -473 -1008
-998 l-951 -953 -52 -105 c-71 -144 -93 -234 -93 -385 -1 -131 14 -212 59
-324 59 -149 92 -189 414 -516 324 -329 359 -373 414 -519 38 -100 55 -195 55
-300 0 -166 -19 -235 -128 -476 -84 -186 -182 -423 -246 -598 -71 -193 -117
-271 -220 -381 -111 -116 -251 -199 -411 -243 -75 -20 -109 -22 -540 -28 -522
-7 -525 -8 -695 -96 -208 -107 -353 -284 -427 -519 l-28 -90 -3 -1359 c-2
-1212 -1 -1369 13 -1445 62 -327 301 -583 630 -672 75 -21 110 -23 540 -29
436 -6 464 -8 534 -29 151 -45 269 -116 381 -231 100 -102 157 -201 230 -399
73 -198 156 -398 242 -586 36 -77 74 -169 86 -205 74 -226 48 -476 -71 -690
-35 -63 -89 -123 -343 -380 -324 -328 -377 -394 -433 -540 -63 -162 -76 -354
-35 -519 19 -76 78 -208 124 -278 44 -65 1899 -1923 1976 -1978 79 -58 189
-109 289 -136 113 -30 307 -30 420 0 90 24 201 74 272 122 27 18 179 161 338
319 160 157 313 303 342 323 65 47 198 110 283 133 93 26 327 26 425 0 39 -10
158 -58 265 -106 245 -110 329 -145 560 -232 102 -38 215 -87 251 -108 221
-131 365 -336 415 -588 11 -56 14 -167 14 -470 0 -440 7 -505 68 -649 86 -206
276 -389 485 -468 142 -53 177 -55 983 -55 l744 0 0 2061 0 2062 -90 -6 c-114
-7 -480 8 -680 29 -898 92 -1786 407 -2540 902 -996 653 -1769 1597 -2205
2696 -555 1401 -535 2985 56 4368 223 521 535 1026 916 1478 132 157 489 512
651 648 768 646 1658 1074 2622 1261 351 68 585 91 963 98 l307 6 0 23 0 24
1783 0 1782 0 180 343 c98 188 211 403 250 477 l71 135 1276 3 1276 2 7 -42
c31 -186 131 -375 274 -519 349 -350 909 -382 1298 -74 458 362 499 1049 87
1462 -128 128 -285 216 -471 264 -122 32 -320 32 -446 1 -192 -47 -357 -142
-488 -279 -73 -76 -173 -223 -185 -270 l-6 -23 -1467 0 -1466 0 -251 -478
-251 -477 -1627 -3 -1626 -2 0 1770 0 1770 -767 -1 c-642 0 -780 -3 -838 -16z"/>
<path d="M22344 18271 c-299 -70 -562 -291 -679 -570 -18 -42 -35 -88 -39
-103 l-6 -28 -3810 0 -3810 0 0 -260 0 -260 3809 0 3809 0 18 -52 c44 -135
133 -278 238 -384 122 -121 275 -209 446 -255 119 -32 366 -33 482 -1 291 80
510 256 640 517 72 144 99 264 99 443 0 204 -50 373 -157 534 -131 197 -319
335 -549 404 -78 23 -111 27 -250 30 -130 3 -175 0 -241 -15z"/>
<path d="M11765 16560 c-471 -42 -879 -323 -1086 -745 -85 -175 -139 -385
-139 -547 l0 -58 2123 -3 2122 -3 97 -22 c245 -56 480 -171 683 -333 188 -149
393 -455 480 -714 48 -143 57 -206 62 -422 8 -320 -20 -456 -152 -730 -71
-149 -137 -252 -231 -363 -78 -92 -142 -148 -282 -248 -205 -147 -379 -211
-717 -263 -61 -10 -570 -14 -2137 -16 l-2058 -4 0 -1913 0 -1913 68 -65 c131
-126 352 -284 568 -406 212 -120 605 -295 737 -327 l27 -7 0 1631 0 1631 168
0 c498 0 2636 32 2747 40 193 15 276 28 420 65 450 115 858 313 1180 572 55
44 156 138 225 209 478 493 750 1051 825 1690 20 168 20 518 0 689 -29 251
-87 505 -161 697 -55 145 -200 420 -305 578 -296 447 -643 758 -1084 975 -413
203 -812 299 -1352 325 -226 11 -2706 11 -2828 0z"/>
<path d="M16375 16412 c235 -122 357 -200 566 -364 l87 -68 292 -2 293 -3 352
-885 353 -885 143 -6 c79 -4 1177 -7 2440 -8 l2297 -1 6 -22 c11 -44 105 -185
170 -255 122 -132 275 -226 451 -278 110 -33 311 -45 431 -26 203 33 371 119
527 270 132 128 218 276 269 462 33 122 33 356 0 479 -29 105 -97 251 -156
334 -63 88 -199 212 -294 270 -94 56 -244 110 -352 127 -106 16 -305 6 -405
-20 -185 -49 -389 -181 -504 -326 -101 -127 -155 -237 -195 -400 l-23 -90
-2223 0 -2224 0 -356 892 -355 893 -880 0 -880 -1 170 -87z"/>
<path d="M22280 13769 c-377 -35 -697 -288 -830 -656 l-23 -63 -1708 0 -1709
0 -4 -22 c-2 -13 -14 -81 -26 -153 -12 -71 -35 -176 -51 -233 -16 -56 -29
-104 -29 -107 0 -3 794 -5 1764 -5 l1764 0 18 -52 c78 -239 263 -453 490 -567
131 -66 238 -92 392 -98 159 -7 250 6 381 53 228 81 433 260 539 469 150 299
148 634 -8 922 -187 347 -564 548 -960 512z"/>
<path d="M19752 11855 c-169 -38 -323 -159 -400 -314 -23 -46 -42 -90 -42 -97
0 -12 -156 -14 -1004 -14 l-1003 0 -65 -52 c-36 -29 -94 -77 -129 -107 -35
-30 -101 -79 -148 -110 l-84 -56 1214 -3 1215 -2 19 -55 c37 -112 142 -237
249 -300 131 -77 294 -103 439 -71 231 52 414 235 462 463 64 303 -110 605
-405 703 -85 28 -232 35 -318 15z"/>
<path d="M12560 9451 c0 -477 4 -862 10 -922 36 -369 170 -675 404 -926 401
-427 911 -600 1491 -503 215 36 447 134 635 267 124 89 329 294 402 403 122
184 207 394 250 620 20 111 21 145 25 998 l4 882 -320 0 -321 0 0 -790 c0
-493 -4 -827 -11 -886 -42 -379 -230 -645 -571 -809 -138 -66 -236 -89 -388
-89 -152 0 -250 23 -387 89 -287 137 -469 353 -542 640 -37 149 -41 249 -41
1060 l0 785 -320 0 -320 0 0 -819z"/>
<path d="M17465 10256 c-249 -41 -490 -142 -681 -284 -114 -85 -295 -264 -371
-369 -103 -140 -196 -339 -242 -521 -52 -201 -55 -266 -56 -1167 l0 -840 323
-3 322 -2 0 814 c0 837 2 895 41 1051 66 262 250 484 509 615 260 131 513 141
770 31 302 -130 508 -368 580 -673 34 -146 40 -291 40 -1075 l0 -763 321 0
320 0 -4 863 c-4 933 -6 968 -61 1170 -49 179 -105 302 -206 457 -81 123 -306
349 -437 438 -171 116 -367 201 -561 243 -124 27 -481 36 -607 15z"/>
<path d="M19670 9960 l0 -310 645 0 645 0 0 -1290 0 -1290 325 0 325 0 0 1290
0 1290 643 2 642 3 3 308 2 307 -1615 0 -1615 0 0 -310z"/>
<path d="M24539 10250 c-210 -37 -418 -124 -626 -263 -117 -77 -306 -266 -400
-400 -121 -172 -208 -372 -255 -590 -19 -88 -22 -132 -22 -317 0 -186 3 -229
23 -320 85 -398 284 -716 599 -958 319 -245 715 -359 1120 -323 217 19 375 63
570 156 184 88 271 151 428 309 245 247 377 482 446 799 19 89 22 132 22 327
0 195 -3 239 -22 326 -66 303 -214 587 -409 782 -264 264 -545 415 -881 473
-153 26 -440 25 -593 -1z m520 -620 c329 -79 613 -355 718 -697 24 -80 27
-103 27 -248 0 -117 -5 -178 -17 -227 -59 -237 -198 -445 -388 -581 -91 -64
-235 -130 -343 -157 -79 -20 -108 -22 -250 -18 -180 6 -240 20 -378 88 -108
54 -193 117 -279 207 -87 91 -135 161 -189 275 -67 140 -84 219 -84 398 0 165
13 235 67 370 130 322 437 562 780 610 87 12 238 3 336 -20z"/>
<path d="M14660 6335 c-220 -50 -381 -224 -406 -439 l-7 -55 704 -4 c672 -3
708 -5 797 -25 115 -26 202 -65 305 -140 98 -70 173 -158 231 -271 131 -256
135 -484 15 -724 -104 -205 -213 -309 -414 -395 -157 -66 -137 -65 -922 -69
l-713 -4 0 -249 0 -250 23 -5 c13 -4 349 -4 748 -2 775 4 786 5 964 58 91 27
251 105 345 167 283 187 482 481 556 822 22 101 30 345 15 451 -31 214 -119
434 -241 598 -83 112 -223 249 -325 316 -156 104 -355 182 -537 210 -153 23
-1045 31 -1138 10z"/>
<path d="M19320 6343 c-202 -11 -351 -42 -498 -105 -177 -76 -296 -154 -417
-273 -189 -186 -313 -418 -372 -695 -27 -127 -24 -380 6 -520 58 -271 182
-495 382 -686 126 -120 256 -201 435 -273 191 -75 318 -91 762 -91 l322 0 0
255 0 255 -302 0 c-406 0 -507 16 -677 105 -118 62 -227 168 -301 295 -81 139
-110 232 -117 380 -5 97 -2 129 16 200 69 275 261 501 498 587 157 57 142 56
906 60 l707 4 0 255 0 254 -647 -2 c-357 -1 -673 -3 -703 -5z"/>
<path d="M25916 6339 c-468 -41 -876 -329 -1080 -760 -93 -197 -121 -346 -113
-612 7 -236 34 -346 137 -546 78 -153 125 -218 224 -316 124 -123 238 -206
370 -270 226 -110 371 -135 785 -135 l291 0 0 254 0 254 -292 5 c-169 2 -318
10 -353 17 -241 49 -453 225 -570 473 -89 188 -97 380 -24 583 91 249 266 424
512 511 70 25 83 26 422 33 193 5 412 9 488 9 l137 1 0 -1070 0 -1070 265 0
265 0 0 1325 0 1325 -687 -1 c-379 -1 -728 -5 -777 -10z"/>
<path d="M17190 5020 l0 -1320 265 0 265 0 0 1320 0 1320 -265 0 -265 0 0
-1320z"/>
<path d="M20950 5020 l0 -1320 265 0 265 0 0 1320 0 1320 -265 0 -265 0 0
-1320z"/>
<path d="M21770 6090 l0 -250 535 0 535 0 0 -1070 0 -1070 265 0 265 0 0 1070
0 1070 535 0 535 0 0 250 0 250 -1335 0 -1335 0 0 -250z"/>
<path d="M27660 5683 c0 -673 6 -817 40 -974 49 -227 173 -443 359 -627 190
-187 396 -297 668 -354 106 -22 123 -23 856 -26 l747 -3 0 255 0 255 -712 4
c-756 4 -765 4 -898 53 -148 55 -330 206 -408 340 -51 88 -97 223 -111 327 -7
49 -11 327 -11 743 l0 664 -265 0 -265 0 0 -657z"/>
<path d="M19290 5025 l0 -255 431 -2 431 -3 -2 -532 -1 -533 266 0 265 0 0
368 c0 203 -3 558 -7 790 l-6 422 -689 0 -688 0 0 -255z"/>
</g>
</svg>
